<?xml version="1.0" encoding="UTF-8" standalone="no"?>
<!-- Created with Inkscape (http://www.inkscape.org/) -->

<svg
   width="210.00011mm"
   height="209.99959mm"
   viewBox="0 0 210.00011 209.99959"
   version="1.1"
   id="svg1"
   inkscape:version="1.4.2 (ebf0e940d0, 2025-05-08)"
   sodipodi:docname="siteDisabled.svg"
   xmlns:inkscape="http://www.inkscape.org/namespaces/inkscape"
   xmlns:sodipodi="http://sodipodi.sourceforge.net/DTD/sodipodi-0.dtd"
   xmlns="http://www.w3.org/2000/svg"
   xmlns:svg="http://www.w3.org/2000/svg">
  <sodipodi:namedview
     id="namedview1"
     pagecolor="#505050"
     bordercolor="#eeeeee"
     borderopacity="1"
     inkscape:showpageshadow="0"
     inkscape:pageopacity="0"
     inkscape:pagecheckerboard="0"
     inkscape:deskcolor="#505050"
     inkscape:document-units="mm"
     inkscape:zoom="0.43473625"
     inkscape:cx="396.79231"
     inkscape:cy="395.64219"
     inkscape:window-width="1366"
     inkscape:window-height="690"
     inkscape:window-x="0"
     inkscape:window-y="0"
     inkscape:window-maximized="1"
     inkscape:current-layer="layer1" />
  <defs
     id="defs1" />
  <g
     inkscape:label="Layer 1"
     inkscape:groupmode="layer"
     id="layer1"
     transform="translate(0,-43.500187)">
    <path
       id="path1"
       style="display:inline;fill:#000000;stroke-width:0.326837"
       d="M 104.99979,43.500187 A 105,105 0 0 0 0,148.49998 105,105 0 0 0 104.99979,253.49977 105,105 0 0 0 210.0001,148.49998 105,105 0 0 0 104.99979,43.500187 Z m 0,28.01121 a 76.988724,76.988724 0 0 1 40.41562,11.460799 L 39.472526,188.91508 A 76.988724,76.988724 0 0 1 28.01121,148.49998 76.988724,76.988724 0 0 1 104.99979,71.511397 Z m 64.87305,35.530653 a 76.988724,76.988724 0 0 1 12.11605,41.45793 76.988724,76.988724 0 0 1 -76.9891,76.98858 76.988724,76.988724 0 0 1 -41.457415,-12.11554 z" />
  </g>
</svg>
